# xmcd
#
# Track frame offsets: 
#        150
#        20290
#        31222
#        43010
#        58985
#        91416
#        93991
#        98476
#        135314
#        158313
#
# Disc length: 2502 seconds
#
# Revision: 0
# Processed by: cddbd v1.5.2PL0 Copyright (c) Steve Scherf et al.
# Submitted via: ExactAudioCopy v0.95b3
#
DISCID=6a09c40a
DTITLE=The Who  - The 1969 SDB Tapes 2  FLAC
DYEAR=1900
DGENRE=
TTITLE0=Heaven and Hell
TTITLE1=Can't Explain
TTITLE2=Fortune Teller
TTITLE3=Tattoo
TTITLE4=Young Man Blues
TTITLE5=I'm Free (cuts in)
TTITLE6=Tommy's Holiday Camp
TTITLE7=We're Not Gonna Take It
TTITLE8=Summertime Blues
TTITLE9=Shakin' All Over
EXTD=
EXTT0=
EXTT1=
EXTT2=
EXTT3=
EXTT4=
EXTT5=
EXTT6=
EXTT7=
EXTT8=
EXTT9=
PLAYORDER=
